<mxfile host="65bd71144e">
    <diagram id="3rqUQgAviUnTxgStA7p-" name="Page-1">
        <mxGraphModel dx="1088" dy="1638" grid="1" gridSize="10" guides="1" tooltips="1" connect="1" arrows="1" fold="1" page="1" pageScale="1" pageWidth="850" pageHeight="1100" math="0" shadow="0">
            <root>
                <mxCell id="0"/>
                <mxCell id="1" parent="0"/>
                <mxCell id="h0GhQMKNpA5xtizegrnL-1" value="Manage data&amp;nbsp;" style="shape=umlFrame;whiteSpace=wrap;html=1;width=160;height=30;fontSize=14;" parent="1" vertex="1">
                    <mxGeometry x="170" y="-880" width="510" height="560" as="geometry"/>
                </mxCell>
                <mxCell id="2" style="rounded=1;sketch=0;orthogonalLoop=1;jettySize=auto;html=1;endArrow=block;endFill=0;endSize=10;startSize=10;" edge="1" parent="1" source="RD-NvHHjDOXEdXnR1vTJ-3" target="RD-NvHHjDOXEdXnR1vTJ-6">
                    <mxGeometry relative="1" as="geometry"/>
                </mxCell>
                <mxCell id="RD-NvHHjDOXEdXnR1vTJ-3" value="Add item" style="ellipse;whiteSpace=wrap;html=1;fontSize=14;" parent="1" vertex="1">
                    <mxGeometry x="530" y="-830" width="120" height="50" as="geometry"/>
                </mxCell>
                <mxCell id="RD-NvHHjDOXEdXnR1vTJ-4" style="edgeStyle=entityRelationEdgeStyle;rounded=1;sketch=0;orthogonalLoop=1;jettySize=auto;html=1;fontSize=14;endSize=10;endArrow=classic;endFill=1;" parent="1" source="RD-NvHHjDOXEdXnR1vTJ-5" target="RD-NvHHjDOXEdXnR1vTJ-6" edge="1">
                    <mxGeometry relative="1" as="geometry">
                        <mxPoint x="325" y="-650" as="targetPoint"/>
                    </mxGeometry>
                </mxCell>
                <mxCell id="h0GhQMKNpA5xtizegrnL-10" style="edgeStyle=none;rounded=1;sketch=0;orthogonalLoop=1;jettySize=auto;html=1;endArrow=classic;endFill=1;endSize=10;fontSize=14;" parent="1" source="RD-NvHHjDOXEdXnR1vTJ-5" target="h0GhQMKNpA5xtizegrnL-7" edge="1">
                    <mxGeometry relative="1" as="geometry"/>
                </mxCell>
                <mxCell id="RD-NvHHjDOXEdXnR1vTJ-5" value="Restaurant manager" style="shape=umlActor;verticalLabelPosition=bottom;verticalAlign=top;html=1;rounded=0;sketch=0;fontSize=14;" parent="1" vertex="1">
                    <mxGeometry x="70" y="-710" width="30" height="60" as="geometry"/>
                </mxCell>
                <mxCell id="RD-NvHHjDOXEdXnR1vTJ-6" value="Edit menu" style="ellipse;whiteSpace=wrap;html=1;fontSize=14;" parent="1" vertex="1">
                    <mxGeometry x="280" y="-720" width="120" height="80" as="geometry"/>
                </mxCell>
                <mxCell id="3" style="edgeStyle=none;rounded=1;sketch=0;orthogonalLoop=1;jettySize=auto;html=1;endArrow=block;endFill=0;startSize=10;endSize=10;" edge="1" parent="1" source="RD-NvHHjDOXEdXnR1vTJ-13" target="RD-NvHHjDOXEdXnR1vTJ-6">
                    <mxGeometry relative="1" as="geometry"/>
                </mxCell>
                <mxCell id="RD-NvHHjDOXEdXnR1vTJ-13" value="Change item" style="ellipse;whiteSpace=wrap;html=1;fontSize=14;" parent="1" vertex="1">
                    <mxGeometry x="530" y="-740" width="120" height="50" as="geometry"/>
                </mxCell>
                <mxCell id="4" style="edgeStyle=none;rounded=1;sketch=0;orthogonalLoop=1;jettySize=auto;html=1;endArrow=block;endFill=0;startSize=10;endSize=10;" edge="1" parent="1" source="RD-NvHHjDOXEdXnR1vTJ-17" target="RD-NvHHjDOXEdXnR1vTJ-6">
                    <mxGeometry relative="1" as="geometry"/>
                </mxCell>
                <mxCell id="RD-NvHHjDOXEdXnR1vTJ-17" value="Remove item" style="ellipse;whiteSpace=wrap;html=1;fontSize=14;" parent="1" vertex="1">
                    <mxGeometry x="530" y="-650" width="120" height="50" as="geometry"/>
                </mxCell>
                <mxCell id="RD-NvHHjDOXEdXnR1vTJ-23" style="edgeStyle=orthogonalEdgeStyle;rounded=0;orthogonalLoop=1;jettySize=auto;html=1;exitX=0.5;exitY=1;exitDx=0;exitDy=0;fontSize=14;" parent="1" source="RD-NvHHjDOXEdXnR1vTJ-17" target="RD-NvHHjDOXEdXnR1vTJ-17" edge="1">
                    <mxGeometry relative="1" as="geometry"/>
                </mxCell>
                <mxCell id="5" style="edgeStyle=none;rounded=1;sketch=0;orthogonalLoop=1;jettySize=auto;html=1;endArrow=block;endFill=0;startSize=10;endSize=10;" edge="1" parent="1" source="ume9rT-e13OWC4TH4kUw-5" target="RD-NvHHjDOXEdXnR1vTJ-6">
                    <mxGeometry relative="1" as="geometry"/>
                </mxCell>
                <mxCell id="ume9rT-e13OWC4TH4kUw-5" value="Update promotion" style="ellipse;whiteSpace=wrap;html=1;fontSize=14;" parent="1" vertex="1">
                    <mxGeometry x="530" y="-540" width="120" height="60" as="geometry"/>
                </mxCell>
                <mxCell id="7" style="edgeStyle=none;rounded=1;sketch=0;orthogonalLoop=1;jettySize=auto;html=1;endArrow=block;endFill=0;startSize=10;endSize=10;" edge="1" parent="1" source="h0GhQMKNpA5xtizegrnL-3" target="h0GhQMKNpA5xtizegrnL-7">
                    <mxGeometry relative="1" as="geometry"/>
                </mxCell>
                <mxCell id="h0GhQMKNpA5xtizegrnL-3" value="Backup data" style="ellipse;whiteSpace=wrap;html=1;fontSize=14;" parent="1" vertex="1">
                    <mxGeometry x="280" y="-440" width="120" height="80" as="geometry"/>
                </mxCell>
                <mxCell id="6" style="edgeStyle=none;rounded=1;sketch=0;orthogonalLoop=1;jettySize=auto;html=1;endArrow=block;endFill=0;startSize=10;endSize=10;" edge="1" parent="1" source="h0GhQMKNpA5xtizegrnL-5" target="h0GhQMKNpA5xtizegrnL-7">
                    <mxGeometry relative="1" as="geometry"/>
                </mxCell>
                <mxCell id="h0GhQMKNpA5xtizegrnL-5" value="Restore data" style="ellipse;whiteSpace=wrap;html=1;fontSize=14;" parent="1" vertex="1">
                    <mxGeometry x="490" y="-440" width="120" height="80" as="geometry"/>
                </mxCell>
                <mxCell id="h0GhQMKNpA5xtizegrnL-7" value="Maintain data" style="ellipse;whiteSpace=wrap;html=1;fontSize=14;" parent="1" vertex="1">
                    <mxGeometry x="280" y="-600" width="120" height="80" as="geometry"/>
                </mxCell>
            </root>
        </mxGraphModel>
    </diagram>
</mxfile>